<svg xmlns="http://www.w3.org/2000/svg" width="1370" height="1094" fill="none"><path stroke="#3A7DFE" stroke-width="3" d="M1245.43 245c28.99 38.039 55.48 45.476 71.98 58.06 20.99 16.017 104.47 82.586-3.5 135.642-107.97 53.055-264.93 66.069-329.911-11.012-8.333-10.563-23.4-33.79-17-42.19 8-10.5 17 20.5 2.5 44.5s-57 60-109 70.5-151.5-20.5-196-85-45.5-153-11-216.5c18-40 15.999-43 11-60-5-17 2-69.5 17-88.5 5.5-5 4.5-11.5 4-18s3-31 29-30.5c9.5 0 19 10.5 22.5 10s9 2.5 9.5 7-19.5 25.5-48 31.5c-10 1.5 19-20.5 38.5-24s22.5-2.5 32.5 0 39 21 49.5 48-9.5 19-19 20.5-20 6.5-29 16-23.5 26.5-11 63.5c4.5 3.5-3 6-1.5 10s2 34 9 45 12.5 52.5 13.5 58 10 46.5 26.5 66 20.5 25.5 22 15-17-19-28.5-15-25.5 39-4.5 53 41.5 11 45.5-11-45.5-156-45-158.5-4-10.5 1.5-14 4-57.5 5-63.5 6-26.5 6.5-30.5-2.5-10-8.5-3.5-19.5 32.5-12 44 8-49 4-42-9 19.5-17.5 58.5c-2.5 5.5-10-2.5-8.5-7s-3-25.5-6-21 4.5 51.999-13 41c-17.5-11-5.473-59 5.5-70 10.973-11 9.5-28 31-22 4.5 4-31 49-17.5 46.5s9-24 17.5-28 35.716-1 34-28c-1.716-27-145 31.5-147.5 62s54.5-60.5 61.5-52.5 17-2 8.5 20.5-18.5 57.5-10 64.5 13.5 0 8 0-7.5-3.501-16.5 7c-9 10.5 8 33 15 42s-56.608 154-80.5 127.5c-23.891-26.5 79.5-115.5 96.5-103s60 77.809 22 120c-38 42.19-172.5 82-227.5 25-6.5-9-7-29 5-25s1.5 19-23.5 16.5c-7 1.5-12.5 8-8.5 12.5S536.5 398.5 525 397s-22.5 1-43 13.5-144 71.5-206 67-212.5-14-258.5 25.5S39 610.5 67 633s382.018 229.997 366.5 305c-9 43.5-88 41-104.5 89-8.078 23.5 11 59.33 16.5 65.5"/></svg>