<svg xmlns="http://www.w3.org/2000/svg" width="831" height="740" fill="none"><path stroke="#3A7DFE" stroke-width="3" d="M2 1c34.5 41.5 111.7 121.8 144.5 111 14-8 3-37.5-34.5-24.5s-37 113 8.5 138 108 41 183-3C384.788 174.811 450 12 579 29c39.5 11.5 44.5 47 28 55s-68.5 45.5-78 37-30 12-25.5 20-13.5 14.5-35 15.5c-14 2.5-9.5 6.5-7.5 6.5s9-6.5 12-11.5 11.5-23 27.5-16c9 6.5 26.5 4 32-17 4.4-16.8 107.167-69.667 158-94 7-2.833 17.1-5.9 1.5 4.5-19.5 13-132 71-135.5 79.5s9 3 17 15.5 12.5 54.5 53.5 72 77.5 27.5 68.5 9-40-10-42.5-26c-1-3.5 2.5-7.5 0-14s12-28 23-15.5-15 18-3 21c4.5 0 19.5 4.5 8 10.5s-30 8.5-36.5 0 10.5-17 2-18-43.5 7.5-44.5-9 16-17.5 18-14.5.5 10 7 10 20 7 15.5 9.5-10.836 0-21 14c-6 3.5-35-11.5-30-19s17-9.5 14.5-20-11.5-13 0-22 11.5-8 25-4-1.5 11.5-4 17.5-5 12.5-13 4.5c-4-1.5-12.5 3-15.5 0s-9-12.5 5-28 39.5 6 45.5 6 16-9.5 24 0 1.5 8.5 10 13-2 10.5-6 7.5-12-1.5-15 0-25-5.5-5.5-28.5 22 25.5 37 21 16-17 22.5-13 25.5 17.5 34 11 3-8.5-11.5-15-11-10.5-15-10-28 9.5-7.5 25c4.5 2 9-2.5 11 2s19.5 9 26.5 4.5-5 17 4.5 21.5 0-13 15 12c12.5 14.5 31.5 0 20-8s-2-14-11-19-14 2-17-1.5-9 .5-8 21c1 4.5-7 9-18.5 4.5s-18.5 14-3.5 17 34.5-9 15-21.5-36 6-29.5 15.5-4 22.5-8.5 23.5-10 9.5-6.5 17.5-4.5 12.5-13.5 13.5-137-22-111-96C602 94 590.5 84 676 80s124.5 52.5 124 62 14 15 7 28.5-36 59-80 20C712 179 697 178 712 208s81 64 95 71 42 44.5 0 74-395.5 162-479.5 265-21 125 12 119.5 37.5-28 30-35.5-19.5 16-12.5 24.5 18 10.5 68.5-11 199.5-130.5 256-89 45.5 102 45.5 111"/></svg>