<svg xmlns="http://www.w3.org/2000/svg" width="878" height="1594" fill="none"><path stroke="#3A7DFE" stroke-width="3" d="M91 1.5C54.832 22.5-9.7 80.8 21.5 146c27.998 48 48.498 10.5 30.498 0-18-10.5-49-.5-50 38-.8 30.8 33 85.833 50 109.5C113.832 368.833 280.6 534.8 453 596c215.5 76.5 445.5 223 325.5 246-96 18.4-253.333 7.667-320 0-7.333.333-23.4-4.4-29-26-7-27-12.5-50.5-17-52s-19-1.5-21-11.5c-1.6-8-7.667 1-10.5 6.5 4.833-1.5 14.8-5.8 16-11 1.5-6.5 16.5-9 20 4.5 2.5 3 17.5 4 21 20s4 40.5-8.5 73-8.5 44.5 0 45.5c6.8.8 12.5-1 14.5-2-2-12.333-9-39-21-47-15-10-18.5-9-26-20.5s-17.5-46.5 0-53 17 27 17 29.5.5 36.5-15 39.5-32.5 1-32 12 1.5 54.5 14 49c10-2.8 14.833-7.5 16-9.5-10.333-16.333-31.4-50.3-33-55.5-2-4-6.5-13.9-8.5-21.5-2.5-9.5-11-27-27-34.5-5.5-5-4.5-10-9-13.5s-12-8-24.5 4.5c-3.2 3.2-8 3.333-10 3 4.167.333 12.6 1.5 13 3.5.5 2.5 5.5 12 11.5 8.5s6.5-5 3.5-6-15 4-15 20.5 16.5 47.5 32.5 51.5 22.5 1 28-4-123.5 2-134.5-5c-4.667-1.167-11.9-5.6-3.5-14 10.5-10.5 28.5-30.5 18-41s-24-13-21-26 25-10.434 21 6c0 6-4 7 6 9.5s-9.5-13-11 0c-1.5 6.5-1.5 10.5-1.5 13.5s2.5 36-44 58.5c-20.8 11.2-15.667 34-10.5 44-7.5 2.833-23.1 6.2-25.5-3-3-11.5-.5-49 32.5-96.5 28.5-39.5 35-1 31 7s-11 21-53 44.5c-5.966 4-76.5 2.5-138 2-6-.5-15.3 3.9-4.5 25.5 13.5 27 42.5 53.5 67.5 67.5s671 274.5 685 338.5c3.828 17.5-19.026 26.32-27 8.5-8.5-19 37-51.5 54-8.5s-75.5 206-78.5 225-25.5 97 63.5 90.5c65-4.75 87-38.5 92-42"/></svg>