<svg xmlns="http://www.w3.org/2000/svg" width="1078" height="837" fill="none"><path stroke="#3A7DFE" stroke-width="3" d="M1076.5 1.5C1041 41 950.6 124.5 873 142.5 776 165 750.5 165 617.5 126s-232.5-63.5-377-23.5-155 100.5-120 98.5c12.5 0 40.5-66-47.5-26.5s-90.9 152.774-28.5 196c89.501 62 327.5 122 373 174.5s1 116.5-11 103c-4-6.5-2.5-21.5-11.5-26.5s-13.5-4.5-25.5-4-22-12-24-9.5 20 11 22 25.5-.5 17.5-1 19.5-6.802 41.39 43.5 69.5c51 28.5 48.5 88.5 38 80.5s-49-67-34-102.5 54-58 61.5-47.5-24.5 43.5-61.5 25.5 24.5-74 87-93-22.5 73.5-53 82-38 53-38 70.5 35.5 103 38 83 10 17-9 14"/></svg>