<svg xmlns="http://www.w3.org/2000/svg" width="1082" height="676" fill="none"><path stroke="#3A7DFE" stroke-width="3" d="M1 83c33.167 6.167 102 9 134 71s41 81 83 98.5c56.559 23.566 126.5 3.5 160-29.5s83.5-58 68-153-49.5-66.5-49-54.5 1 21-6 35-26 52.5-8.5 69.5 37.5 35.5 34 48.5-41.5 55-41.5 46.5c7.5-9.5 33-29 33-52s-38.5-47.5-46-31-6 32-3 36.5-4.5 36.5 3 37 14 8.5 84-32.5 172 9 154 24c-9.5 8.5-73.5 14-86.5 32.5-5.5 3.5-26 1.5-59-32.5-5-5-24.5-18.5-46.5 8.5s-26.5 43 0 38 25.5 4 34.5 4.5 34.5-7 25-29-47.5-55-89.5 47.5S665.5 244 732 182c26.5-30 19-39 9.5-37.5s-19 22-2.5 52.5 53 83.5 219 81.5 116 127 110 144-82.5 141.5-266 175c-119.5 14.5-115 16.5-131-7-11.6-22-13.167-31.833-12.5-34l17.5-5c4.667 21.167 11.8 63.6 3 64-8.8.4-30.333-13.833-40-21l17.5-16c7.667 13.167 20.7 40.9 11.5 46.5-11.5 7-31 10-32 18.5-.8 6.8 8.333 23.5 13 31"/></svg>