<svg xmlns="http://www.w3.org/2000/svg" width="722" height="870" fill="none"><path stroke="#3A7DFE" stroke-width="3" d="M512.499 2.5c64.667-.5 196.5 6.6 206.5 39 12.5 40.5-108.5 27-147.5 31.5s-263-34.5-263 57 110 121.5 118.5 174-23.5 74-5 93.5-13-9.5 5-23.5 19.5-7 25-21 9.5 36-5.5 44.5-31 10.5-30 24 4.5-15.5-6.5-31.5c-4.4-7.6-1.833-17.5 0-21.5-10.5 15.333-24.7 49.4 2.5 63 27.2 13.6 50.667-15.333 59-31.5-19.667 2.333-54.354 10.5-65 58 1.167-7-.3-23.6-15.5-34-7.6-5.6-11.5-14.333-12.5-18-4 21.333-4 63.7 28 62.5 32-1.2 50.333-23.5 55.5-34.5-17.333 2.167-52 13.6-52 42 0 7-18 7 4 10s-11-22.5-7.5 16 12.5-5.5-6-22.5c-2.5-1.5-6.5-2.5-13.5-8s-21.5-8.5-37 4.5-39 12.5-52-4.5-34.5-36-38-81.5-113-131-128.5-156-23.5-31-35-67.5c-6-13-10 4-5 18s11.999 47.5 40 80C159.5 297 157.501 302 144.5 294s-35.999-28.5-44.5-39.5c-8.5-11-18.5-33-17.5 0s18.999 83.5 44.999 94.5c26 11 42 3.5 21-7s-66-26.5-66 0 36.5 98 79.5 84.5c15-5.5-34.5-28-42.5 6s49.5 66 67 59-22.001-22.5-32-15.5c-9.999 7-22.5 35.5 13 65.5 19 8.5 37-7.5 28-18s-21-3.5-17.5 18 5.5 43-4 35.5 1-17 26-25 98-48 117.5-35.5 56.5 49 61 28 11-68.372 19.5-60.5-41.5 57-19.5 66 27 24 68 24.5 118.5 43.5 122 50.5 56 25 87 16 56.5.5 5 16-127.5-32-127.5-16 40.5 32 35.5 38-50 26.5-92.5 0 22-24.271 17-9-22.5 30-71 15-28.5-66.5-9.5-44-15.5 55-49.5 38-39-59-19.5-48.5 4.5 47.5-26 31.5-84.5-24.5-19.5-63 76-25.5 70.5-41.5-93 64-133 65-47 17-57.5 23-44 27.5-106-4.5-61-42.5-15.5-58 101.5-31 98-14c-3.501 17-162-5.5-152.5 45.5S172 690 206.5 759.5C234.1 815.1 172.333 855 138 868"/></svg>